<svg width="188" height="56" viewBox="0 0 188 56" fill="none" xmlns="http://www.w3.org/2000/svg">
<path d="M116.912 11.92C118.48 11.92 119.64 12.264 120.392 12.952C121.144 13.64 121.52 14.736 121.52 16.24V25H119.984L119.576 23.176H119.48C118.92 23.88 118.328 24.4 117.704 24.736C117.096 25.072 116.248 25.24 115.16 25.24C113.992 25.24 113.024 24.936 112.256 24.328C111.488 23.704 111.104 22.736 111.104 21.424C111.104 20.144 111.608 19.16 112.616 18.472C113.624 17.768 115.176 17.384 117.272 17.32L119.456 17.248V16.48C119.456 15.408 119.224 14.664 118.76 14.248C118.296 13.832 117.64 13.624 116.792 13.624C116.12 13.624 115.48 13.728 114.872 13.936C114.264 14.128 113.696 14.352 113.168 14.608L112.52 13.024C113.08 12.72 113.744 12.464 114.512 12.256C115.28 12.032 116.08 11.92 116.912 11.92ZM117.536 18.784C115.936 18.848 114.824 19.104 114.2 19.552C113.592 20 113.288 20.632 113.288 21.448C113.288 22.168 113.504 22.696 113.936 23.032C114.384 23.368 114.952 23.536 115.64 23.536C116.728 23.536 117.632 23.24 118.352 22.648C119.072 22.04 119.432 21.112 119.432 19.864V18.712L117.536 18.784ZM128.877 11.896C130.349 11.896 131.517 12.192 132.381 12.784C133.261 13.36 133.701 14.192 133.701 15.28C133.701 16.064 133.485 16.688 133.053 17.152C132.621 17.6 132.029 17.928 131.277 18.136V18.232C131.789 18.376 132.261 18.576 132.693 18.832C133.125 19.088 133.469 19.424 133.725 19.84C133.997 20.256 134.133 20.792 134.133 21.448C134.133 22.52 133.685 23.424 132.789 24.16C131.909 24.88 130.525 25.24 128.637 25.24C127.709 25.24 126.869 25.16 126.117 25C125.365 24.856 124.741 24.656 124.245 24.4V22.504C124.789 22.76 125.429 22.992 126.165 23.2C126.917 23.408 127.733 23.512 128.613 23.512C129.573 23.512 130.381 23.352 131.037 23.032C131.709 22.696 132.045 22.128 132.045 21.328C132.045 19.888 130.821 19.168 128.373 19.168H126.645V17.44H128.037C129.141 17.44 130.021 17.296 130.677 17.008C131.349 16.704 131.685 16.192 131.685 15.472C131.685 14.864 131.429 14.408 130.917 14.104C130.421 13.8 129.701 13.648 128.757 13.648C128.053 13.648 127.429 13.72 126.885 13.864C126.357 13.992 125.773 14.192 125.133 14.464L124.389 12.784C125.733 12.192 127.229 11.896 128.877 11.896ZM136.587 17.272C136.587 14.456 137.011 12.264 137.859 10.696C138.707 9.112 140.075 8.12 141.963 7.72C143.003 7.496 144.019 7.296 145.011 7.12C146.003 6.944 146.931 6.784 147.795 6.64L148.155 8.488C147.595 8.568 146.963 8.672 146.259 8.8C145.555 8.912 144.859 9.032 144.171 9.16C143.483 9.272 142.891 9.384 142.395 9.496C141.355 9.72 140.531 10.264 139.923 11.128C139.315 11.976 138.971 13.304 138.891 15.112H139.035C139.259 14.808 139.563 14.496 139.947 14.176C140.347 13.856 140.819 13.584 141.363 13.36C141.923 13.136 142.555 13.024 143.259 13.024C144.923 13.024 146.179 13.56 147.027 14.632C147.875 15.704 148.299 17.096 148.299 18.808C148.299 20.232 148.051 21.424 147.555 22.384C147.059 23.344 146.371 24.064 145.491 24.544C144.611 25.008 143.587 25.24 142.419 25.24C140.643 25.24 139.227 24.56 138.171 23.2C137.115 21.84 136.587 19.864 136.587 17.272ZM142.587 23.488C143.627 23.488 144.467 23.152 145.107 22.48C145.747 21.808 146.067 20.656 146.067 19.024C146.067 17.712 145.819 16.68 145.323 15.928C144.843 15.16 144.043 14.776 142.923 14.776C142.219 14.776 141.579 14.936 141.003 15.256C140.427 15.56 139.947 15.912 139.563 16.312C139.179 16.712 138.907 17.048 138.747 17.32C138.747 18.104 138.803 18.864 138.915 19.6C139.027 20.336 139.219 21 139.491 21.592C139.779 22.168 140.171 22.632 140.667 22.984C141.179 23.32 141.819 23.488 142.587 23.488ZM149.61 12.136H151.866L154.65 19.456C154.89 20.096 155.106 20.712 155.298 21.304C155.49 21.88 155.634 22.432 155.73 22.96H155.826C155.922 22.56 156.074 22.04 156.282 21.4C156.49 20.744 156.706 20.088 156.93 19.432L159.546 12.136H161.826L156.282 26.776C155.834 27.992 155.25 28.96 154.53 29.68C153.826 30.4 152.85 30.76 151.602 30.76C151.218 30.76 150.882 30.736 150.594 30.688C150.306 30.656 150.058 30.616 149.85 30.568V28.888C150.026 28.92 150.234 28.952 150.474 28.984C150.73 29.016 150.994 29.032 151.266 29.032C152.002 29.032 152.594 28.824 153.042 28.408C153.506 27.992 153.866 27.44 154.122 26.752L154.794 25.048L149.61 12.136ZM171.468 12.136H173.772L168.276 18.328L174.228 25H171.78L165.972 18.472V25H163.86V12.136H165.972V18.376L171.468 12.136ZM181.435 11.92C183.003 11.92 184.163 12.264 184.915 12.952C185.667 13.64 186.043 14.736 186.043 16.24V25H184.507L184.099 23.176H184.003C183.443 23.88 182.851 24.4 182.227 24.736C181.619 25.072 180.771 25.24 179.683 25.24C178.515 25.24 177.547 24.936 176.779 24.328C176.011 23.704 175.627 22.736 175.627 21.424C175.627 20.144 176.131 19.16 177.139 18.472C178.147 17.768 179.699 17.384 181.795 17.32L183.979 17.248V16.48C183.979 15.408 183.747 14.664 183.283 14.248C182.819 13.832 182.163 13.624 181.315 13.624C180.643 13.624 180.003 13.728 179.395 13.936C178.787 14.128 178.219 14.352 177.691 14.608L177.043 13.024C177.603 12.72 178.267 12.464 179.035 12.256C179.803 12.032 180.603 11.92 181.435 11.92ZM182.059 18.784C180.459 18.848 179.347 19.104 178.723 19.552C178.115 20 177.811 20.632 177.811 21.448C177.811 22.168 178.027 22.696 178.459 23.032C178.907 23.368 179.475 23.536 180.163 23.536C181.251 23.536 182.155 23.24 182.875 22.648C183.595 22.04 183.955 21.112 183.955 19.864V18.712L182.059 18.784ZM125.84 32.136V45H123.944V36.792C123.944 36.456 123.952 36.104 123.968 35.736C124 35.368 124.032 35.008 124.064 34.656H123.992L119.792 45H118.016L113.936 34.656H113.864C113.912 35.376 113.936 36.112 113.936 36.864V45H112.04V32.136H114.848L118.904 42.48L123.032 32.136H125.84ZM141.13 38.544C141.13 40.672 140.586 42.32 139.498 43.488C138.426 44.656 136.97 45.24 135.13 45.24C133.994 45.24 132.978 44.984 132.082 44.472C131.202 43.944 130.506 43.184 129.994 42.192C129.482 41.184 129.226 39.968 129.226 38.544C129.226 36.416 129.762 34.776 130.834 33.624C131.906 32.472 133.362 31.896 135.202 31.896C136.37 31.896 137.394 32.16 138.274 32.688C139.17 33.2 139.866 33.952 140.362 34.944C140.874 35.92 141.13 37.12 141.13 38.544ZM131.41 38.544C131.41 40.064 131.706 41.272 132.298 42.168C132.906 43.048 133.866 43.488 135.178 43.488C136.474 43.488 137.426 43.048 138.034 42.168C138.642 41.272 138.946 40.064 138.946 38.544C138.946 37.024 138.642 35.832 138.034 34.968C137.426 34.104 136.466 33.672 135.154 33.672C133.842 33.672 132.89 34.104 132.298 34.968C131.706 35.832 131.41 37.024 131.41 38.544ZM150.598 31.896C152.182 31.896 153.454 32.448 154.414 33.552C155.39 34.656 155.878 36.32 155.878 38.544C155.878 40.736 155.39 42.4 154.414 43.536C153.454 44.672 152.174 45.24 150.574 45.24C149.582 45.24 148.758 45.056 148.102 44.688C147.462 44.304 146.958 43.864 146.59 43.368H146.446C146.478 43.64 146.51 43.984 146.542 44.4C146.574 44.816 146.59 45.176 146.59 45.48V50.76H144.478V32.136H146.206L146.494 33.888H146.59C146.974 33.328 147.478 32.856 148.102 32.472C148.726 32.088 149.558 31.896 150.598 31.896ZM150.214 33.672C148.902 33.672 147.974 34.04 147.43 34.776C146.902 35.512 146.622 36.632 146.59 38.136V38.544C146.59 40.128 146.846 41.352 147.358 42.216C147.886 43.064 148.854 43.488 150.262 43.488C151.046 43.488 151.686 43.272 152.182 42.84C152.694 42.408 153.07 41.824 153.31 41.088C153.566 40.336 153.694 39.48 153.694 38.52C153.694 37.048 153.406 35.872 152.83 34.992C152.27 34.112 151.398 33.672 150.214 33.672ZM162.627 31.896C164.099 31.896 165.267 32.192 166.131 32.784C167.011 33.36 167.451 34.192 167.451 35.28C167.451 36.064 167.235 36.688 166.803 37.152C166.371 37.6 165.779 37.928 165.027 38.136V38.232C165.539 38.376 166.011 38.576 166.443 38.832C166.875 39.088 167.219 39.424 167.475 39.84C167.747 40.256 167.883 40.792 167.883 41.448C167.883 42.52 167.435 43.424 166.539 44.16C165.659 44.88 164.275 45.24 162.387 45.24C161.459 45.24 160.619 45.16 159.867 45C159.115 44.856 158.491 44.656 157.995 44.4V42.504C158.539 42.76 159.179 42.992 159.915 43.2C160.667 43.408 161.483 43.512 162.363 43.512C163.323 43.512 164.131 43.352 164.787 43.032C165.459 42.696 165.795 42.128 165.795 41.328C165.795 39.888 164.571 39.168 162.123 39.168H160.395V37.44H161.787C162.891 37.44 163.771 37.296 164.427 37.008C165.099 36.704 165.435 36.192 165.435 35.472C165.435 34.864 165.179 34.408 164.667 34.104C164.171 33.8 163.451 33.648 162.507 33.648C161.803 33.648 161.179 33.72 160.635 33.864C160.107 33.992 159.523 34.192 158.883 34.464L158.139 32.784C159.483 32.192 160.979 31.896 162.627 31.896ZM175.977 31.896C177.081 31.896 178.025 32.136 178.809 32.616C179.609 33.096 180.217 33.776 180.633 34.656C181.065 35.52 181.281 36.536 181.281 37.704V38.976H172.473C172.505 40.432 172.873 41.544 173.577 42.312C174.297 43.064 175.297 43.44 176.577 43.44C177.393 43.44 178.113 43.368 178.737 43.224C179.377 43.064 180.033 42.84 180.705 42.552V44.4C180.049 44.688 179.401 44.896 178.761 45.024C178.121 45.168 177.361 45.24 176.481 45.24C175.265 45.24 174.185 44.992 173.241 44.496C172.313 44 171.585 43.264 171.057 42.288C170.545 41.296 170.289 40.088 170.289 38.664C170.289 37.256 170.521 36.048 170.985 35.04C171.465 34.032 172.129 33.256 172.977 32.712C173.841 32.168 174.841 31.896 175.977 31.896ZM175.953 33.624C174.945 33.624 174.145 33.952 173.553 34.608C172.977 35.248 172.633 36.144 172.521 37.296H179.073C179.057 36.208 178.801 35.328 178.305 34.656C177.809 33.968 177.025 33.624 175.953 33.624Z" fill="black"/>
<line x1="101.5" y1="4" x2="101.5" y2="52" stroke="black" stroke-width="3"/>
<path d="M16.032 45.288C14.112 45.288 12.256 44.984 10.464 44.376C8.704 43.736 7.104 42.824 5.664 41.64C4.256 40.456 3.136 39.032 2.304 37.368L5.136 35.928C6.256 38.04 7.808 39.624 9.792 40.68C11.776 41.736 13.824 42.264 15.936 42.264C17.728 42.264 19.376 41.912 20.88 41.208C22.416 40.504 23.76 39.544 24.912 38.328C26.064 37.08 26.976 35.656 27.648 34.056C28.352 32.456 28.736 30.76 28.8 28.968H12.72V26.184H28.752C28.56 24.072 27.936 22.072 26.88 20.184C25.824 18.296 24.384 16.76 22.56 15.576C20.736 14.36 18.56 13.752 16.032 13.752C13.984 13.752 12.016 14.232 10.128 15.192C8.272 16.152 6.8 17.704 5.712 19.848L2.928 18.168C4.112 15.992 5.776 14.216 7.92 12.84C10.064 11.432 12.736 10.728 15.936 10.728C18.528 10.728 20.832 11.224 22.848 12.216C24.896 13.176 26.608 14.472 27.984 16.104C29.392 17.736 30.464 19.576 31.2 21.624C31.936 23.64 32.304 25.704 32.304 27.816C32.304 30.024 31.904 32.184 31.104 34.296C30.336 36.376 29.232 38.248 27.792 39.912C26.352 41.544 24.624 42.856 22.608 43.848C20.624 44.808 18.432 45.288 16.032 45.288ZM38.5845 45V10.92H52.6965C54.1685 10.92 55.5125 11.224 56.7285 11.832C57.9765 12.44 59.0485 13.272 59.9445 14.328C60.8725 15.352 61.5765 16.504 62.0565 17.784C62.5685 19.032 62.8245 20.312 62.8245 21.624C62.8245 23.48 62.4085 25.24 61.5765 26.904C60.7445 28.536 59.5925 29.864 58.1205 30.888C56.6485 31.912 54.9365 32.424 52.9845 32.424H41.9445V45H38.5845ZM41.9445 29.448H52.8405C54.1845 29.448 55.3525 29.08 56.3445 28.344C57.3365 27.608 58.1045 26.648 58.6485 25.464C59.1925 24.28 59.4645 23 59.4645 21.624C59.4645 20.216 59.1445 18.936 58.5045 17.784C57.8645 16.6 57.0165 15.656 55.9605 14.952C54.9365 14.248 53.8005 13.896 52.5525 13.896H41.9445V29.448ZM76.6601 10.92H79.4921L93.6521 45H90.1001L85.6841 34.344H70.3721L66.0041 45H62.4041L76.6601 10.92ZM84.9161 31.704L78.0521 14.856L71.0921 31.704H84.9161Z" fill="black"/>
</svg>
